<svg xmlns="http://www.w3.org/2000/svg" viewBox="-178.3 -167.1 1000 700"><path fill="none" d="M-40-413.9h687.1v245H-40z"/><text transform="translate(-39.96 -330.115)" font-family="'Sansation-Light'" font-size="120">brightness</text><path d="M-85.2 304h9.3v37.9c11.7-2.9 21.5-4.4 29.5-4.4 29.3 0 43.9 14.8 43.9 44.4 0 32.1-15.4 48.1-46.1 48.1-13.3 0-25.5-1.3-36.6-3.8V304zm9.2 115.1c10 1.7 18.9 2.6 26.5 2.6 25.3 0 37.9-13.5 37.9-40.5 0-23.3-11.7-35-35-35-8.5 0-18.3 1.6-29.4 4.8v68.1zM19.5 430v-92.5h6.6l1.1 11.8c5.2-7.9 13.5-11.8 24.9-11.8v7.4c-11 0-18.8 3.9-23.4 11.7V430h-9.2zm58.6-126v8.8h-9.3V304h9.3zm0 33.4V430h-9.3v-92.5h9.3zM182.7 430c0 22.3-14.2 33.5-42.6 33.5-11.4 0-21.5-1.5-30.3-4.4v-7.9c9 2.9 19.2 4.4 30.5 4.4 22.1 0 33.1-8.5 33.1-25.6v-4.4c-11.6 2.9-21.4 4.4-29.4 4.4-29.3 0-43.9-15.6-43.9-46.8 0-30.5 15.4-45.7 46.3-45.7 12.5 0 24.6 1.3 36.3 3.8V430zm-9.3-82.2c-10.3-1.4-19.5-2.1-27.8-2.1-24.4 0-36.6 12.4-36.6 37.3 0 25.4 11.7 38.2 35 38.2 8.5 0 18.2-1.6 29.3-4.8v-68.6zm35.7 82.2V304h9.3v43.5c14.3-6.7 27.2-10 38.5-10 20.2 0 30.2 11.5 30.2 34.5v58h-9.3v-61.9c0-14.9-8.6-22.4-25.8-22.4-9.3 0-20.6 3.9-33.7 11.7V430h-9.2zm104.4-107.5h5.8l1.8 15h23.3v7.9h-21.6v58.4c0 12.2 4.6 18.2 13.8 18.2h7.8v7.9h-7.6c-15.5 0-23.3-8.3-23.3-24.9v-82.5zM362 430v-92.5h6.6l1.1 11.8c15.3-7.9 28.7-11.8 40-11.8 20.2 0 30.2 9.7 30.2 29.2V430h-9.3v-63.6c0-13.7-7.7-20.6-23.2-20.6-11.1 0-23.2 3.9-36.3 11.7V430H362zm178.7-44.3h-69.4c0 24.2 14.3 36.3 42.8 36.3 8.2 0 16.3-.9 24.5-2.6v7.9c-8.2 1.8-18.1 2.6-29.8 2.6-31.2 0-46.8-15.8-46.8-47.3 0-30.1 14.8-45.2 44.3-45.2 27.2 0 38.6 16.1 34.4 48.3zm-69.4-8.2h60.6c1.4-21.5-8-32.3-28.2-32.3-20.5 0-31.3 10.7-32.4 32.3zm94.4 48.1v-8.8c10.3 3.5 21 5.3 32.1 5.3 19.4 0 29.2-6.2 29.2-18.5 0-10-7.2-15-21.6-15h-15c-19.4 0-29.1-8.2-29.1-24.7 0-17.6 12.8-26.4 38.5-26.4 11 0 21.7 1.5 32 4.4v8.8c-10.3-3.5-20.9-5.3-32-5.3-19.5 0-29.3 6.2-29.3 18.5 0 10.6 6.6 15.9 19.8 15.9h15c20.6 0 30.8 7.9 30.8 23.8 0 17.6-12.8 26.4-38.4 26.4-11 0-21.7-1.5-32-4.4zm92.5 0v-8.8c10.3 3.5 21 5.3 32.1 5.3 19.4 0 29.2-6.2 29.2-18.5 0-10-7.2-15-21.6-15h-15c-19.4 0-29.1-8.2-29.1-24.7 0-17.6 12.8-26.4 38.5-26.4 11 0 21.7 1.5 32 4.4v8.8c-10.3-3.5-20.9-5.3-32-5.3-19.5 0-29.3 6.2-29.3 18.5 0 10.6 6.6 15.9 19.8 15.9h15c20.6 0 30.8 7.9 30.8 23.8 0 17.6-12.8 26.4-38.4 26.4-11 0-21.7-1.5-32-4.4z" fill="#7C9299"/><path fill="#1DEDA7" d="M318.3 192.6c-63.4 0-114.9-51.6-114.9-114.9 0-63.4 51.6-114.9 114.9-114.9S433.2 14.3 433.2 77.7c0 63.4-51.5 114.9-114.9 114.9zm0-224.1c-60.2 0-109.2 49-109.2 109.2s49 109.2 109.2 109.2 109.2-49 109.2-109.2-49-109.2-109.2-109.2zm1.8-28.7c-1.6 0-2.9-1.3-2.9-2.9v-31.7c0-1.6 1.3-2.9 2.9-2.9s2.9 1.3 2.9 2.9v31.7c0 1.6-1.3 2.9-2.9 2.9zm-70.6 17.9c-1 0-2-.5-2.5-1.4l-15.8-27.4c-.8-1.4-.3-3.1 1.1-3.9 1.4-.8 3.1-.3 3.9 1.1L252-46.6c.8 1.4.3 3.1-1.1 3.9-.4.3-.9.4-1.4.4zM197.3 8.6c-.5 0-1-.1-1.4-.4L168.4-7.6c-1.4-.8-1.8-2.6-1.1-3.9.8-1.4 2.5-1.8 3.9-1.1l27.4 15.8c1.4.8 1.8 2.6 1.1 3.9-.5 1-1.4 1.5-2.4 1.5zm-19.8 70.1h-31.7c-1.6 0-2.9-1.3-2.9-2.9s1.3-2.9 2.9-2.9h31.7c1.6 0 2.9 1.3 2.9 2.9s-1.3 2.9-2.9 2.9zm-9.5 86.5c-1 0-2-.5-2.5-1.4-.8-1.4-.3-3.1 1.1-3.9L194 144c1.4-.8 3.1-.3 3.9 1.1.8 1.4.3 3.1-1.1 3.9l-27.4 15.8c-.4.3-.9.4-1.4.4zm62.4 63.8c-.5 0-1-.1-1.4-.4-1.4-.8-1.8-2.6-1.1-3.9l15.8-27.4c.8-1.4 2.5-1.9 3.9-1.1 1.4.8 1.8 2.6 1.1 3.9l-15.8 27.4c-.5 1-1.5 1.5-2.5 1.5zm86 24.1c-1.6 0-2.9-1.3-2.9-2.9v-31.7c0-1.6 1.3-2.9 2.9-2.9 1.6 0 2.9 1.3 2.9 2.9v31.7c0 1.6-1.3 2.9-2.9 2.9zm86.5-22.2c-1 0-2-.5-2.5-1.4L384.6 202c-.8-1.4-.3-3.1 1.1-3.9 1.4-.8 3.1-.3 3.9 1.1l15.8 27.4c.8 1.4.3 3.1-1.1 3.9-.4.3-.9.4-1.4.4zm63.8-62.5c-.5 0-1-.1-1.4-.4l-27.4-15.8c-1.4-.8-1.8-2.6-1.1-3.9.8-1.4 2.5-1.9 3.9-1.1l27.4 15.8c1.4.8 1.8 2.6 1.1 3.9-.5 1-1.5 1.5-2.5 1.5zm24.1-86h-31.7c-1.6 0-2.9-1.3-2.9-2.9s1.3-2.9 2.9-2.9h31.7c1.6 0 2.9 1.3 2.9 2.9s-1.3 2.9-2.9 2.9zm-49.6-70.6c-1 0-2-.5-2.5-1.4-.8-1.4-.3-3.1 1.1-3.9l27.4-15.8c1.4-.8 3.1-.3 3.9 1.1.8 1.4.3 3.1-1.1 3.9l-27.4 15.8c-.5.2-1 .3-1.4.3zm-50.9-52.2c-.5 0-1-.1-1.4-.4-1.4-.8-1.8-2.6-1.1-3.9l15.8-27.4c.8-1.4 2.6-1.9 3.9-1.1 1.4.8 1.8 2.6 1.1 3.9l-15.8 27.4c-.6.9-1.5 1.5-2.5 1.5z"/></svg>